<svg width="834" height="289" viewBox="0 0 834 289" fill="none" xmlns="http://www.w3.org/2000/svg">
<rect width="833.908" height="289" fill="white"/>
<mask id="mask0_242_243" style="mask-type:alpha" maskUnits="userSpaceOnUse" x="0" y="0" width="834" height="289">
<rect width="833.908" height="289" fill="white"/>
</mask>
<g mask="url(#mask0_242_243)">
<path d="M381.289 105.422C370.111 98.3909 357.851 93.8837 344.329 92.9822C328.824 91.9005 314.761 96.0471 302.141 103.8C289.881 111.372 280.145 121.108 271.491 131.925C253.823 153.921 244.087 178.621 243.727 205.844C243.727 215.039 244.989 224.234 247.873 233.068C252.381 246.59 260.854 256.867 275.278 262.816C285.013 266.783 295.29 268.766 306.107 269.127C324.317 269.487 341.264 265.341 356.949 257.227C379.666 245.328 396.073 228.02 407.251 206.746C414.462 193.044 418.068 178.44 416.986 163.115C415.364 138.776 403.645 119.305 381.469 105.422H381.289Z" fill="#FF6900"/>
<path d="M248.229 42.3163C246.967 35.2849 244.984 28.2535 240.477 22.1236C235.969 15.6332 229.659 11.8471 221.005 11.1259C207.123 10.2245 195.224 14.1908 184.586 22.1236C175.031 29.155 167.819 38.1696 161.87 47.725C148.889 68.9994 140.054 103.796 138.792 110.827C136.989 110.827 135.187 110.827 133.564 110.827C118.419 110.827 103.636 113.171 89.2123 117.858C74.9693 122.546 62.1686 129.397 49.7286 137.149C45.4016 139.854 41.6155 143.099 38.5505 147.065C24.1272 165.816 16.7353 186.729 18.1776 209.626C19.0791 223.869 24.4878 236.67 34.5841 247.668C44.1395 257.944 56.3993 264.976 69.9212 270.204C90.6547 278.137 112.109 281.202 134.465 277.055C153.576 273.63 170.343 265.517 185.308 254.339C195.224 246.947 202.615 238.112 207.483 227.475C214.334 212.511 220.464 197.367 225.873 182.042C239.936 141.837 244.263 126.332 248.59 84.3241C250.032 70.2614 250.393 56.1987 247.869 42.3163H248.229Z" fill="#FF6900"/>
<path d="M736.456 90.6358C679.123 97.3065 659.111 131.382 646.31 167.981C630.625 212.873 640.721 271.828 693.907 271.468C756.288 271.107 795.591 242.802 808.753 189.616C829.486 105.961 796.853 83.4242 736.456 90.4555V90.6358Z" fill="#FF6900"/>
<path d="M620.168 21.4057C550.756 14.3744 544.986 107.585 543.724 114.075C542.102 114.075 464.396 100.373 431.944 169.785C413.554 209.269 425.453 259.931 484.589 272.912C542.462 285.532 575.816 282.828 607.547 222.791C614.759 209.269 687.236 28.2568 619.987 21.4057H620.168Z" fill="#FF6900"/>
</g>
</svg>
