<svg width="808" height="289" viewBox="0 0 808 289" fill="none" xmlns="http://www.w3.org/2000/svg">
<g clip-path="url(#clip0_352_62)">
<rect x="-13" width="833.908" height="289" fill="white"/>
<mask id="mask0_352_62" style="mask-type:alpha" maskUnits="userSpaceOnUse" x="-13" y="0" width="834" height="289">
<rect x="-13" width="833.908" height="289" fill="white"/>
</mask>
<g mask="url(#mask0_352_62)">
<path d="M368.289 105.422C357.111 98.3909 344.851 93.8837 331.329 92.9822C315.824 91.9005 301.761 96.0471 289.141 103.8C276.881 111.372 267.145 121.108 258.491 131.925C240.823 153.921 231.087 178.621 230.727 205.844C230.727 215.039 231.989 224.234 234.873 233.068C239.381 246.59 247.854 256.867 262.278 262.816C272.013 266.783 282.29 268.766 293.107 269.127C311.317 269.487 328.264 265.341 343.949 257.227C366.666 245.328 383.073 228.02 394.251 206.746C401.462 193.044 405.068 178.44 403.986 163.115C402.364 138.776 390.645 119.305 368.469 105.422H368.289Z" fill="#FF6900"/>
<path d="M235.229 42.3163C233.967 35.2849 231.984 28.2535 227.477 22.1236C222.969 15.6332 216.659 11.8471 208.005 11.1259C194.123 10.2245 182.224 14.1908 171.586 22.1236C162.031 29.155 154.819 38.1696 148.87 47.725C135.889 68.9994 127.054 103.796 125.792 110.827C123.989 110.827 122.187 110.827 120.564 110.827C105.419 110.827 90.6356 113.171 76.2123 117.858C61.9693 122.546 49.1686 129.397 36.7286 137.149C32.4016 139.854 28.6155 143.099 25.5505 147.065C11.1272 165.816 3.73528 186.729 5.1776 209.626C6.07906 223.869 11.4878 236.67 21.5841 247.668C31.1395 257.944 43.3993 264.976 56.9212 270.204C77.6547 278.137 99.1093 281.202 121.465 277.055C140.576 273.63 157.343 265.517 172.308 254.339C182.224 246.947 189.615 238.112 194.483 227.475C201.334 212.511 207.464 197.367 212.873 182.042C226.936 141.837 231.263 126.332 235.59 84.3241C237.032 70.2614 237.393 56.1987 234.869 42.3163H235.229Z" fill="#FF6900"/>
<path d="M723.456 90.6358C666.123 97.3065 646.111 131.382 633.31 167.981C617.625 212.873 627.721 271.828 680.907 271.468C743.288 271.107 782.591 242.802 795.753 189.616C816.486 105.961 783.853 83.4242 723.456 90.4555V90.6358Z" fill="#FF6900"/>
<path d="M607.168 21.4057C537.756 14.3744 531.986 107.585 530.724 114.075C529.102 114.075 451.396 100.373 418.944 169.785C400.554 209.269 412.453 259.931 471.589 272.912C529.462 285.532 562.816 282.828 594.547 222.791C601.759 209.269 674.236 28.2568 606.987 21.4057H607.168Z" fill="#FF6900"/>
</g>
</g>
<defs>
<clipPath id="clip0_352_62">
<rect width="808" height="289" fill="white"/>
</clipPath>
</defs>
</svg>
