<svg width="879" height="257" viewBox="0 0 879 257" fill="none" xmlns="http://www.w3.org/2000/svg">
<path d="M390.497 35.9422C378.107 28.1483 364.517 23.1522 349.529 22.1529C332.342 20.9539 316.754 25.5503 302.765 34.1436C289.176 42.5371 278.384 53.3287 268.792 65.3194C249.207 89.7004 238.415 117.079 238.016 147.256C238.016 157.448 239.415 167.64 242.612 177.432C247.608 192.42 257.001 203.812 272.988 210.406C283.78 214.803 295.171 217.001 307.162 217.401C327.346 217.801 346.131 213.204 363.518 204.211C388.698 191.022 406.884 171.836 419.275 148.255C427.268 133.067 431.265 116.879 430.066 99.8924C428.268 72.9134 415.278 51.3302 390.697 35.9422H390.497Z" fill="#FF6900"/>
<path d="M156.744 1.53189C98.8561 8.90608 78.6498 46.5743 65.7251 87.0326C49.8878 136.659 40.0638 202.695 93.7651 202.297C133.465 202.297 166.885 206.263 183.624 192.9C202.72 177.657 212.564 142.279 219.645 110.949C240.579 18.4726 217.727 -6.44015 156.744 1.33264V1.53189Z" fill="#FF6900"/>
<path d="M87.6108 168.783C94.8959 189.722 63.9479 260.881 21.5871 234.908C1.81145 222.783 -5.27638 181.901 4.09046 155.559C15.4275 123.676 48.7637 127.458 76.9442 134.623L87.6108 168.783Z" fill="#FF6900"/>
<path d="M229.898 197.834C233.224 155.159 221.031 152.387 173.921 159.038C156.713 188.412 143.405 246.561 184.976 249.931C209.362 251.908 226.573 240.51 229.898 197.834Z" fill="#FF6900"/>
<path d="M489.859 189.541C501.791 197.312 528.695 202.762 553.989 202.847C579.869 202.933 606.164 198.11 619.636 189.542C641.449 170.695 671.603 94.7734 659.983 42.0913C656.281 25.3093 646.127 15.7904 630.731 9.21514C620.339 4.83165 609.369 2.63991 597.822 2.24141C578.385 1.84291 560.295 6.4256 543.552 15.3918C519.304 28.5423 501.791 47.6703 489.859 71.1817C482.161 86.3247 464.999 134.749 462.67 153.87C459.576 179.283 483.177 175.691 479.467 184.953L489.859 189.541Z" fill="#FF6900"/>
<path d="M583.428 184.299C576.143 205.238 607.091 276.397 649.452 250.423C669.228 238.298 676.315 197.416 666.949 171.074C655.612 139.192 622.275 142.973 594.095 150.139L583.428 184.299Z" fill="#FF6900"/>
<path d="M436.594 178.99C433.269 136.315 445.462 133.544 492.571 140.194C509.779 169.568 523.087 227.717 481.516 231.088C457.13 233.065 439.919 221.666 436.594 178.99Z" fill="#FF6900"/>
<path d="M791.947 21.7665C728.397 29.1608 706.214 66.9314 692.025 107.5C674.638 157.261 685.83 222.61 744.784 222.211C813.93 221.811 857.496 190.435 872.085 131.481C895.067 38.7534 858.895 13.7728 791.947 21.5667V21.7665Z" fill="#FF6900"/>
</svg>
