<svg width="424" height="147" viewBox="0 0 424 147" fill="none" xmlns="http://www.w3.org/2000/svg">
<g clip-path="url(#clip0_13_167)">
<path d="M423.953 0H0V147H423.953V0Z" fill="white"/>
<mask id="mask0_13_167" style="mask-type:alpha" maskUnits="userSpaceOnUse" x="0" y="0" width="424" height="147">
<path d="M423.953 0H0V147H423.953V0Z" fill="white"/>
</mask>
<g mask="url(#mask0_13_167)">
<path d="M193.845 53.6228C188.162 50.0464 181.929 47.7538 175.055 47.2953C167.172 46.7451 160.022 48.8543 153.606 52.7978C147.374 56.6493 142.424 61.6015 138.024 67.1036C129.042 78.2919 124.092 90.8555 123.909 104.703C123.909 109.38 124.551 114.057 126.017 118.55C128.309 125.428 132.616 130.655 139.95 133.681C144.899 135.699 150.123 136.708 155.623 136.891C164.881 137.075 173.496 134.966 181.47 130.838C193.02 124.786 201.361 115.982 207.044 105.161C210.71 98.1918 212.543 90.7635 211.993 82.9684C211.168 70.5883 205.21 60.6844 193.936 53.6228H193.845Z" fill="#FF6900"/>
<path d="M126.198 21.5238C125.556 17.9473 124.548 14.3707 122.257 11.2528C119.965 7.95141 116.757 6.02561 112.357 5.65877C105.3 5.20028 99.2504 7.21774 93.8421 11.2528C88.9844 14.8293 85.3179 19.4146 82.2934 24.2749C75.694 35.0962 71.2023 52.7955 70.5607 56.3718C69.6441 56.3718 68.728 56.3718 67.9028 56.3718C60.2032 56.3718 52.6876 57.5641 45.3547 59.9481C38.1137 62.3327 31.6059 65.8174 25.2815 69.7605C23.0817 71.1364 21.1568 72.787 19.5986 74.8043C12.2659 84.342 8.50791 94.9794 9.24117 106.626C9.69949 113.871 12.4492 120.382 17.5821 125.976C22.44 131.203 28.6728 134.78 35.5473 137.439C46.088 141.474 56.9953 143.033 68.3609 140.924C78.0768 139.182 86.601 135.055 94.2091 129.369C99.2504 125.609 103.008 121.115 105.483 115.705C108.966 108.093 112.082 100.39 114.832 92.5953C121.982 72.145 124.181 64.2584 126.381 42.8911C127.114 35.7381 127.298 28.5851 126.015 21.5238H126.198Z" fill="#FF6900"/>
<path d="M374.409 46.1014C345.261 49.4944 335.087 66.8269 328.579 85.443C320.605 108.277 325.738 138.265 352.777 138.082C384.491 137.898 404.473 123.501 411.164 96.4477C421.705 53.8965 405.114 42.4332 374.409 46.0097V46.1014Z" fill="#FF6900"/>
<path d="M315.289 10.8878C280.001 7.31131 277.067 54.7229 276.426 58.0241C275.601 58.0241 236.096 51.0545 219.597 86.361C210.248 106.445 216.297 132.214 246.362 138.817C275.784 145.236 292.741 143.86 308.873 113.323C312.539 106.445 349.386 14.3726 315.197 10.8878H315.289Z" fill="#FF6900"/>
</g>
</g>
<defs>
<clipPath id="clip0_13_167">
<rect width="424" height="147" fill="white"/>
</clipPath>
</defs>
</svg>
